# xmcd CD database file
#
# Track frame offsets:
#	187
#	14947
#	31065
#	46520
#	59352
#	70585
#	76885
#	89607
#	106705
#	121045
#	132832
#	150457
#
# Disc length: 2196 seconds
#
# Revision: 0
# Processed by: cddbd v1.4PL0 Copyright (c) Steve Scherf et al.
# Submitted via: CDex 1.50beta8
#
DISCID=8808920c
DTITLE=Barbara Lea - Barbara Lea
DYEAR=1956
DGENRE=Jazz
TTITLE0=Nobody Else But Me
TTITLE1=Where Have You Been
TTITLE2=I'm Coming Virgina
TTITLE3=Honey In The Honeycomb
TTITLE4=Thursday's Child
TTITLE5=I've Got A Pocket Full of Dreams
TTITLE6=My Honey's Lovin' Arms
TTITLE7=I Had Myself A True Love
TTITLE8=Gee Baby, Ain't I Good To You
TTITLE9=I Feel AT Home With You
TTITLE10=Baltimore Oriole
TTITLE11=Blue Skies
EXTD=YEAR: 1956
EXTT0=
EXTT1=
EXTT2=
EXTT3=
EXTT4=
EXTT5=
EXTT6=
EXTT7=
EXTT8=
EXTT9=
EXTT10=
EXTT11=
PLAYORDER=
